<svg width="24" height="24" viewBox="0 0 24 24" fill="none" xmlns="http://www.w3.org/2000/svg">
<path d="M13.9274 7.15625V3.64125C13.9274 3.285 13.636 3 13.2717 3H4.21415C3.54637 3 3 3.53438 3 4.1875V20.8125C3 21.4656 3.54637 22 4.21415 22H18.784C19.4518 22 19.9981 21.4656 19.9981 20.8125V9.53125C19.9981 9.19875 19.731 8.9375 19.3911 8.9375H15.7486C14.7409 8.9375 13.9274 8.14187 13.9274 7.15625ZM16.3557 18.4375C16.3557 19.0906 15.8093 19.625 15.1415 19.625H10.2849C9.61713 19.625 9.07076 19.0906 9.07076 18.4375V17.25H7.85661C7.18883 17.25 6.64246 16.7156 6.64246 16.0625V12.5C6.64246 11.8469 7.18883 11.3125 7.85661 11.3125H12.7132C13.381 11.3125 13.9274 11.8469 13.9274 12.5V13.6875H15.1415C15.8093 13.6875 16.3557 14.2219 16.3557 14.875V18.4375ZM15.1415 3.59375V6.5625C15.1415 7.21562 15.6879 7.75 16.3557 7.75H19.3911C19.9374 7.75 20.2045 7.10875 19.816 6.74063L16.1736 3.17813C15.7972 2.79813 15.1415 3.07125 15.1415 3.59375ZM12.7132 13.6875V12.5H7.85661V16.0625H9.07076V14.875C9.07076 14.2219 9.61713 13.6875 10.2849 13.6875H12.7132ZM10.2849 14.875H15.1415V18.4375H10.2849V14.875Z" fill="#F5F5F5"/>
</svg>
