<svg width="24" height="24" viewBox="0 0 24 24" fill="none" xmlns="http://www.w3.org/2000/svg">
<path d="M4.7 22C4.2325 22 3.83243 21.7676 3.4998 21.3029C3.16717 20.8382 3.00057 20.2789 3 19.625V5.375C3 4.72187 3.1666 4.16296 3.4998 3.69825C3.833 3.23354 4.23307 3.00079 4.7 3H18.3C18.7675 3 19.1678 3.23275 19.501 3.69825C19.8342 4.16375 20.0006 4.72267 20 5.375V19.625C20 20.2781 19.8337 20.8374 19.501 21.3029C19.1684 21.7684 18.7681 22.0008 18.3 22H4.7ZM6.4 18.4375H16.6C16.8408 18.4375 17.0428 18.3235 17.206 18.0955C17.3692 17.8675 17.4506 17.5857 17.45 17.25C17.4494 16.9143 17.3678 16.6325 17.2052 16.4045C17.0426 16.1765 16.8408 16.0625 16.6 16.0625H6.4C6.15917 16.0625 5.95743 16.1765 5.7948 16.4045C5.63217 16.6325 5.55057 16.9143 5.55 17.25C5.54943 17.5857 5.63103 17.8679 5.7948 18.0967C5.95857 18.3255 6.1603 18.4391 6.4 18.4375ZM6.4 13.6875H16.6C16.8408 13.6875 17.0428 13.5735 17.206 13.3455C17.3692 13.1175 17.4506 12.8357 17.45 12.5C17.4494 12.1643 17.3678 11.8825 17.2052 11.6545C17.0426 11.4265 16.8408 11.3125 16.6 11.3125H6.4C6.15917 11.3125 5.95743 11.4265 5.7948 11.6545C5.63217 11.8825 5.55057 12.1643 5.55 12.5C5.54943 12.8357 5.63103 13.1179 5.7948 13.3467C5.95857 13.5755 6.1603 13.6891 6.4 13.6875ZM6.4 8.9375H13.2C13.4408 8.9375 13.6428 8.8235 13.806 8.5955C13.9692 8.3675 14.0506 8.08567 14.05 7.75C14.0494 7.41433 13.9678 7.1325 13.8052 6.9045C13.6426 6.6765 13.4408 6.5625 13.2 6.5625H6.4C6.15917 6.5625 5.95743 6.6765 5.7948 6.9045C5.63217 7.1325 5.55057 7.41433 5.55 7.75C5.54943 8.08567 5.63103 8.3679 5.7948 8.59669C5.95857 8.82548 6.1603 8.93908 6.4 8.9375Z" fill="#F5F5F5"/>
</svg>
